Coordinates
version=1
nRows=13
nColumns=40
inDegrees=yes

Units are S.I. units (second, meters, Newtons, ...)
If the header above contains a line with 'inDegrees', this indicates whether rotational values are in degrees (yes) or radians (no).

endheader
time	pelvis_tilt	pelvis_list	pelvis_rotation	pelvis_tx	pelvis_ty	pelvis_tz	hip_flexion_r	hip_adduction_r	hip_rotation_r	knee_angle_r	knee_angle_r_beta	ankle_angle_r	subtalar_angle_r	mtp_angle_r	hip_flexion_l	hip_adduction_l	hip_rotation_l	knee_angle_l	knee_angle_l_beta	ankle_angle_l	subtalar_angle_l	mtp_angle_l	lumbar_extension	lumbar_bending	lumbar_rotation	arm_flex_r	arm_add_r	arm_rot_r	elbow_flex_r	pro_sup_r	wrist_flex_r	wrist_dev_r	arm_flex_l	arm_add_l	arm_rot_l	elbow_flex_l	pro_sup_l	wrist_flex_l	wrist_dev_l
      0.31000000	     -4.08621291	     -3.26193546	      2.87192167	     -0.75924806	      0.87476502	      0.24227919	      7.50443019	      5.20395672	    -11.81077522	     14.41678785	      0.25162042	      2.37001863	      0.00000000	      0.00000000	     24.46579937	     -9.04819590	     -2.81835486	     56.30916592	      0.98278034	     -0.53847727	      0.00000000	      0.00000000	     -1.89487032	      3.42907414	      3.08377313	     -4.34369482	     -7.23856998	      0.03661242	     37.27070006	     89.12959295	    -21.27774515	      0.61470755	     -7.95393061	     -7.98681355	      7.34686902	     37.61418524	     89.30828795	    -20.80188976	      5.95588978
      0.32000000	     -3.52220680	     -2.66151089	      1.68925262	     -0.74585058	      0.87617186	      0.24450112	      5.42604110	      4.94616550	    -10.73801631	     13.40543095	      0.23396891	      2.49499140	      0.00000000	      0.00000000	     24.29542013	     -8.94292848	     -4.82798541	     53.42174438	      0.93238533	     -0.17564107	      0.00000000	      0.00000000	     -2.69476112	      2.68402433	      5.30326065	     -4.44330187	     -7.42926135	     -1.59373353	     39.40173211	     89.14688811	    -21.12019919	      1.04125839	     -7.64003932	     -8.20819162	      8.58248259	     35.76672817	     89.29886340	    -20.61629542	      6.83013999
      0.33000000	     -3.61561584	     -2.58587237	      1.13224978	     -0.73279818	      0.87601054	      0.24568923	      4.18519951	      5.07383497	    -10.53159959	     12.56798434	      0.21935271	      2.58430807	      0.00000000	      0.00000000	     25.16915003	     -9.00472432	     -5.86876707	     50.64202080	      0.88387000	      0.19860443	      0.00000000	      0.00000000	     -2.65161097	      2.54437345	      7.03680716	     -4.90815747	     -7.62492133	     -3.98878653	     42.03293544	     89.18678993	    -18.90470558	      2.42781514	     -7.14486257	     -8.44710474	     10.60871418	     33.54229676	     89.26403455	    -20.22554812	      7.46870640
      0.34000000	     -3.50308421	     -2.38096368	      0.40005800	     -0.71971043	      0.87580111	      0.24725401	      2.75663455	      5.06534256	    -10.16348821	     11.82228164	      0.20633774	      2.88275468	      0.00000000	      0.00000000	     25.60037383	     -9.06527828	     -7.33218773	     47.51971635	      0.82937551	      0.51871072	      0.00000000	      0.00000000	     -2.88728534	      2.18602397	      7.79070440	     -4.21506749	     -7.96936262	     -4.03106961	     43.36026276	     89.17861896	    -18.45541733	      2.64551480	     -7.79217367	     -8.52613975	     10.35484435	     32.53943194	     89.25622591	    -20.32529855	      7.57101303
      0.35000000	     -3.28944197	     -2.25932064	     -0.20100083	     -0.70669368	      0.87536310	      0.24848717	      1.22097177	      5.10205625	     -9.99665299	     11.07423483	      0.19328186	      3.13548996	      0.00000000	      0.00000000	     25.88051351	     -9.11884104	     -8.69529956	     44.20605529	      0.77154121	      0.89456306	      0.00000000	      0.00000000	     -3.26424353	      1.94499403	      8.63190329	     -3.73515401	     -8.29843410	     -4.60397987	     45.06631817	     89.18081462	    -17.31489174	      3.33987664	     -8.15568031	     -8.62266055	     10.55810076	     31.38385527	     89.24057772	    -20.41374894	      7.66304505
      0.36000000	     -3.58336073	     -2.29980860	     -0.57500985	     -0.69384401	      0.87377601	      0.24921792	      0.29273902	      5.26703736	    -10.10243138	     10.42351172	      0.18192460	      3.47082266	      0.00000000	      0.00000000	     26.81134937	     -9.14805521	     -9.64083042	     40.87613530	      0.71342315	      1.36385820	      0.00000000	      0.00000000	     -3.01241886	      1.89343036	      9.04093462	     -3.10859916	     -8.72406675	     -4.42575862	     46.31293052	     89.16366782	    -17.11099930	      3.32470218	     -8.74723089	     -8.63681583	     10.30298984	     30.38141453	     89.22871320	    -20.48304057	      7.80462980
      0.37000000	     -3.17588618	     -2.03835663	     -1.35039251	     -0.68102932	      0.87308740	      0.25052566	     -1.31814827	      5.07205287	     -9.67261195	      9.96101020	      0.17385242	      3.97860324	      0.00000000	      0.00000000	     26.61097539	     -9.07364232	    -11.45317242	     37.04960749	      0.64663764	      1.56935016	      0.00000000	      0.00000000	     -3.65857524	      1.48581253	      9.83729099	     -2.32450190	     -9.07243285	     -4.50975062	     47.68744101	     89.15675493	    -16.50938542	      3.62828421	     -9.15920989	     -8.76117663	     10.40078997	     29.49027167	     89.20957950	    -20.53671592	      7.68990344
      0.38000000	     -3.01714733	     -1.99111901	     -1.77786016	     -0.66833848	      0.87165425	      0.25110393	     -2.66212184	      5.06863116	     -9.63818464	      9.47579033	      0.16538374	      4.40890932	      0.00000000	      0.00000000	     26.81469711	     -8.94624096	    -12.65583461	     33.25307513	      0.58037565	      1.85585750	      0.00000000	      0.00000000	     -4.02910068	      1.34032442	     10.38059631	     -1.70163546	     -9.48321192	     -4.62933677	     49.21991523	     89.15373334	    -15.70409679	      4.02038270	     -9.47408383	     -8.80156109	     10.46863841	     28.51406394	     89.18416738	    -20.73655323	      7.55616209
      0.39000000	     -2.93659269	     -1.93815080	     -2.13219779	     -0.65579126	      0.86986240	      0.25137741	     -3.85024985	      5.01943451	     -9.58014358	      9.13475303	      0.15943152	      4.89897223	      0.00000000	      0.00000000	     27.07960428	     -8.69438483	    -13.72166295	     29.35803117	      0.51239431	      2.00904656	      0.00000000	      0.00000000	     -4.32776499	      1.20801316	     10.81059106	     -1.03308332	     -9.91180007	     -4.68140418	     50.64464945	     89.14724264	    -14.84756063	      4.43739251	     -9.74233211	     -8.82306357	     10.56318668	     27.58193677	     89.16172611	    -21.02137509	      7.35387019
      0.40000000	     -3.03091354	     -1.99444644	     -2.37821273	     -0.64312703	      0.86755514	      0.25132042	     -4.83564939	      5.05492024	     -9.71764521	      8.86656361	      0.15475073	      5.43846786	      0.00000000	      0.00000000	     27.55020064	     -8.43469321	    -14.40099310	     25.50809931	      0.44520032	      1.98093828	      0.00000000	      0.00000000	     -4.37368218	      1.22382220	     11.10187533	     -0.37420361	    -10.33068246	     -4.66031781	     51.90412140	     89.13966940	    -14.21107636	      4.72028880	    -10.07705179	     -8.80538408	     10.55750972	     26.72414074	     89.14128654	    -21.30630347	      7.19604029
      0.41000000	     -3.41891434	     -2.46403206	     -2.53159948	     -0.63063074	      0.86443033	      0.25119018	     -5.46201734	      5.55915545	     -9.80694268	      8.71550775	      0.15211431	      5.90186760	      0.00000000	      0.00000000	     28.50336535	     -8.53082857	    -14.50680687	     22.01305823	      0.38420034	      2.22794314	      0.00000000	      0.00000000	     -4.16552852	      1.71484082	     11.16255562	      0.31243478	    -10.77776556	     -4.40768645	     53.19593031	     89.14532074	    -14.06483643	      4.60416803	    -10.53620883	     -8.72904848	     10.37088216	     26.06976818	     89.10597170	    -21.40166940	      7.28827566
      0.42000000	     -3.63677260	     -2.53857299	     -2.74980750	     -0.61815125	      0.86165180	      0.25083131	     -6.19772035	      5.55836809	     -9.69159349	      8.68574861	      0.15159491	      6.39684533	      0.00000000	      0.00000000	     29.02619713	     -8.13087403	    -14.22178650	     18.23886594	      0.31832826	      1.77212794	      0.00000000	      0.00000000	     -4.11695642	      1.75808484	     11.43855358	      0.96950760	    -11.23724806	     -4.15345655	     54.26827301	     89.12661117	    -13.81261884	      4.64985905	    -10.72046637	     -8.64122573	     10.11719147	     25.25854564	     89.09809479	    -21.55117966	      7.28034082
      0.43000000	     -3.55846940	     -2.51067378	     -2.94984941	     -0.60535959	      0.85915235	      0.25045404	     -7.24659759	      5.40620112	     -9.63301239	      8.73266229	      0.15241371	      6.99347827	      0.00000000	      0.00000000	     29.16359547	     -7.67994700	    -14.22452477	     14.71282491	      0.25678724	      0.97025894	      0.00000000	      0.00000000	     -4.41070713	      1.69334322	     11.57250725	      1.68147515	    -11.54124623	     -4.09626784	     55.42905988	     89.12612830	    -13.38213298	      4.84712948	    -10.90999740	     -8.60037092	     10.08482773	     24.50315127	     89.07714531	    -21.79832214	      7.06216568
